<mxfile host="app.diagrams.net" modified="2024-03-20T09:27:55.819Z" agent="Mozilla/5.0 (Windows NT 10.0; Win64; x64) AppleWebKit/537.36 (KHTML, like Gecko) Chrome/122.0.0.0 Safari/537.36" etag="jcAs7dSprOanljAZoyvG" version="24.0.6" type="device">
  <diagram name="Page-1" id="9OnAVD34xfvfaQoLW88D">
    <mxGraphModel dx="3083" dy="1270" grid="0" gridSize="10" guides="1" tooltips="1" connect="1" arrows="1" fold="1" page="0" pageScale="1" pageWidth="827" pageHeight="1169" math="0" shadow="0">
      <root>
        <mxCell id="0" />
        <mxCell id="1" parent="0" />
        <mxCell id="pWdWMJ31CZePypWNVzOE-9" value="" style="rounded=0;whiteSpace=wrap;html=1;" vertex="1" parent="1">
          <mxGeometry x="-283" y="-238" width="386" height="99" as="geometry" />
        </mxCell>
        <UserObject label="" id="L3sTXf5K1S5_4LG_mOz2-11">
          <mxCell style="edgeStyle=none;curved=1;rounded=0;orthogonalLoop=1;jettySize=auto;html=1;exitX=0.5;exitY=1;exitDx=0;exitDy=0;entryX=0.5;entryY=0;entryDx=0;entryDy=0;fontSize=12;startSize=8;endSize=8;dashed=1;" parent="1" source="L3sTXf5K1S5_4LG_mOz2-1" target="L3sTXf5K1S5_4LG_mOz2-2" edge="1">
            <mxGeometry relative="1" as="geometry" />
          </mxCell>
        </UserObject>
        <mxCell id="L3sTXf5K1S5_4LG_mOz2-1" value="démarrer serveur" style="rounded=0;whiteSpace=wrap;html=1;" parent="1" vertex="1">
          <mxGeometry x="140" y="265" width="120" height="60" as="geometry" />
        </mxCell>
        <mxCell id="L3sTXf5K1S5_4LG_mOz2-14" style="edgeStyle=none;curved=1;rounded=0;orthogonalLoop=1;jettySize=auto;html=1;exitX=1;exitY=0.5;exitDx=0;exitDy=0;entryX=0;entryY=0.75;entryDx=0;entryDy=0;fontSize=12;startSize=8;endSize=8;dashed=1;" parent="1" source="L3sTXf5K1S5_4LG_mOz2-2" target="L3sTXf5K1S5_4LG_mOz2-4" edge="1">
          <mxGeometry relative="1" as="geometry">
            <mxPoint x="375" y="400" as="sourcePoint" />
          </mxGeometry>
        </mxCell>
        <mxCell id="L3sTXf5K1S5_4LG_mOz2-15" style="edgeStyle=none;curved=1;rounded=0;orthogonalLoop=1;jettySize=auto;html=1;entryX=0;entryY=0.5;entryDx=0;entryDy=0;fontSize=12;startSize=8;endSize=8;dashed=1;" parent="1" target="L3sTXf5K1S5_4LG_mOz2-7" edge="1">
          <mxGeometry relative="1" as="geometry">
            <mxPoint x="290" y="480" as="sourcePoint" />
          </mxGeometry>
        </mxCell>
        <mxCell id="L3sTXf5K1S5_4LG_mOz2-54" style="edgeStyle=none;curved=1;rounded=0;orthogonalLoop=1;jettySize=auto;html=1;entryX=0.25;entryY=0;entryDx=0;entryDy=0;fontSize=12;startSize=8;endSize=8;dashed=1;" parent="1" target="L3sTXf5K1S5_4LG_mOz2-51" edge="1">
          <mxGeometry relative="1" as="geometry">
            <mxPoint x="280" y="480" as="sourcePoint" />
          </mxGeometry>
        </mxCell>
        <mxCell id="L3sTXf5K1S5_4LG_mOz2-2" value="Etablissement connexion avec le moniteur" style="rounded=0;whiteSpace=wrap;html=1;" parent="1" vertex="1">
          <mxGeometry x="120" y="500" width="120" height="60" as="geometry" />
        </mxCell>
        <mxCell id="L3sTXf5K1S5_4LG_mOz2-17" style="edgeStyle=none;curved=1;rounded=0;orthogonalLoop=1;jettySize=auto;html=1;exitX=0.25;exitY=1;exitDx=0;exitDy=0;entryX=0.25;entryY=0;entryDx=0;entryDy=0;fontSize=12;startSize=8;endSize=8;endArrow=none;endFill=0;" parent="1" source="L3sTXf5K1S5_4LG_mOz2-41" target="L3sTXf5K1S5_4LG_mOz2-4" edge="1">
          <mxGeometry relative="1" as="geometry" />
        </mxCell>
        <mxCell id="L3sTXf5K1S5_4LG_mOz2-19" style="edgeStyle=none;curved=1;rounded=0;orthogonalLoop=1;jettySize=auto;html=1;exitX=0.5;exitY=1;exitDx=0;exitDy=0;entryX=0.75;entryY=0;entryDx=0;entryDy=0;fontSize=12;startSize=8;endSize=8;endArrow=none;endFill=0;" parent="1" source="L3sTXf5K1S5_4LG_mOz2-43" target="L3sTXf5K1S5_4LG_mOz2-5" edge="1">
          <mxGeometry relative="1" as="geometry">
            <Array as="points">
              <mxPoint x="661" y="224" />
            </Array>
          </mxGeometry>
        </mxCell>
        <mxCell id="L3sTXf5K1S5_4LG_mOz2-60" style="edgeStyle=none;curved=1;rounded=0;orthogonalLoop=1;jettySize=auto;html=1;exitX=1;exitY=0.5;exitDx=0;exitDy=0;fontSize=12;startSize=8;endSize=8;endArrow=none;endFill=0;" parent="1" source="L3sTXf5K1S5_4LG_mOz2-49" edge="1">
          <mxGeometry relative="1" as="geometry">
            <mxPoint x="810" y="510" as="targetPoint" />
            <Array as="points">
              <mxPoint x="870" y="150" />
            </Array>
          </mxGeometry>
        </mxCell>
        <mxCell id="L3sTXf5K1S5_4LG_mOz2-3" value="déplacer robot" style="rounded=0;whiteSpace=wrap;html=1;" parent="1" vertex="1">
          <mxGeometry x="470" y="-70" width="120" height="60" as="geometry" />
        </mxCell>
        <mxCell id="L3sTXf5K1S5_4LG_mOz2-9" style="edgeStyle=none;curved=1;rounded=0;orthogonalLoop=1;jettySize=auto;html=1;entryX=0;entryY=0.5;entryDx=0;entryDy=0;fontSize=12;startSize=8;endSize=8;dashed=1;" parent="1" source="L3sTXf5K1S5_4LG_mOz2-30" target="L3sTXf5K1S5_4LG_mOz2-2" edge="1">
          <mxGeometry relative="1" as="geometry">
            <mxPoint x="151" y="400" as="sourcePoint" />
          </mxGeometry>
        </mxCell>
        <mxCell id="L3sTXf5K1S5_4LG_mOz2-16" style="edgeStyle=none;curved=1;rounded=0;orthogonalLoop=1;jettySize=auto;html=1;exitX=0.5;exitY=1;exitDx=0;exitDy=0;entryX=0.25;entryY=0;entryDx=0;entryDy=0;fontSize=12;startSize=8;endSize=8;dashed=1;" parent="1" source="L3sTXf5K1S5_4LG_mOz2-44" target="L3sTXf5K1S5_4LG_mOz2-5" edge="1">
          <mxGeometry relative="1" as="geometry" />
        </mxCell>
        <mxCell id="L3sTXf5K1S5_4LG_mOz2-20" style="edgeStyle=none;curved=1;rounded=0;orthogonalLoop=1;jettySize=auto;html=1;exitX=1;exitY=0.5;exitDx=0;exitDy=0;entryX=0;entryY=0.5;entryDx=0;entryDy=0;fontSize=12;startSize=8;endSize=8;dashed=1;" parent="1" source="L3sTXf5K1S5_4LG_mOz2-4" target="L3sTXf5K1S5_4LG_mOz2-6" edge="1">
          <mxGeometry relative="1" as="geometry" />
        </mxCell>
        <mxCell id="yGGIavNJI8EcNuXHw7Ne-2" style="edgeStyle=orthogonalEdgeStyle;rounded=0;orthogonalLoop=1;jettySize=auto;html=1;exitX=1;exitY=0.75;exitDx=0;exitDy=0;entryX=0;entryY=0.5;entryDx=0;entryDy=0;dashed=1;" parent="1" source="L3sTXf5K1S5_4LG_mOz2-4" target="yGGIavNJI8EcNuXHw7Ne-1" edge="1">
          <mxGeometry relative="1" as="geometry" />
        </mxCell>
        <mxCell id="yGGIavNJI8EcNuXHw7Ne-19" style="edgeStyle=orthogonalEdgeStyle;rounded=0;orthogonalLoop=1;jettySize=auto;html=1;exitX=0;exitY=0;exitDx=0;exitDy=0;entryX=0.5;entryY=0;entryDx=0;entryDy=0;" parent="1" source="L3sTXf5K1S5_4LG_mOz2-4" target="yGGIavNJI8EcNuXHw7Ne-9" edge="1">
          <mxGeometry relative="1" as="geometry">
            <Array as="points">
              <mxPoint x="434" y="254" />
              <mxPoint x="-560" y="254" />
            </Array>
          </mxGeometry>
        </mxCell>
        <mxCell id="yGGIavNJI8EcNuXHw7Ne-33" style="edgeStyle=orthogonalEdgeStyle;rounded=0;orthogonalLoop=1;jettySize=auto;html=1;exitX=0;exitY=0;exitDx=0;exitDy=0;entryX=0;entryY=0;entryDx=0;entryDy=0;dashed=1;" parent="1" source="L3sTXf5K1S5_4LG_mOz2-4" target="yGGIavNJI8EcNuXHw7Ne-9" edge="1">
          <mxGeometry relative="1" as="geometry">
            <Array as="points">
              <mxPoint x="434" y="181" />
              <mxPoint x="-620" y="181" />
            </Array>
          </mxGeometry>
        </mxCell>
        <mxCell id="yGGIavNJI8EcNuXHw7Ne-34" style="edgeStyle=orthogonalEdgeStyle;rounded=0;orthogonalLoop=1;jettySize=auto;html=1;exitX=0.75;exitY=0;exitDx=0;exitDy=0;entryX=0.75;entryY=1;entryDx=0;entryDy=0;dashed=1;" parent="1" source="L3sTXf5K1S5_4LG_mOz2-4" target="yGGIavNJI8EcNuXHw7Ne-21" edge="1">
          <mxGeometry relative="1" as="geometry">
            <Array as="points">
              <mxPoint x="520" y="240" />
              <mxPoint x="520" y="210" />
              <mxPoint x="1430" y="210" />
              <mxPoint x="1430" y="2020" />
              <mxPoint x="250" y="2020" />
            </Array>
          </mxGeometry>
        </mxCell>
        <mxCell id="L3sTXf5K1S5_4LG_mOz2-4" value="Traiter les messages en provenance du moniteur" style="rounded=0;whiteSpace=wrap;html=1;" parent="1" vertex="1">
          <mxGeometry x="434" y="240" width="120" height="60" as="geometry" />
        </mxCell>
        <mxCell id="L3sTXf5K1S5_4LG_mOz2-22" style="edgeStyle=none;curved=1;rounded=0;orthogonalLoop=1;jettySize=auto;html=1;exitX=0.5;exitY=1;exitDx=0;exitDy=0;fontSize=12;startSize=8;endSize=8;endArrow=none;endFill=0;dashed=1;" parent="1" source="L3sTXf5K1S5_4LG_mOz2-5" edge="1">
          <mxGeometry relative="1" as="geometry">
            <mxPoint x="800" y="750" as="targetPoint" />
          </mxGeometry>
        </mxCell>
        <mxCell id="L3sTXf5K1S5_4LG_mOz2-23" style="edgeStyle=none;curved=1;rounded=0;orthogonalLoop=1;jettySize=auto;html=1;exitX=1;exitY=0.25;exitDx=0;exitDy=0;fontSize=12;startSize=8;endSize=8;" parent="1" source="L3sTXf5K1S5_4LG_mOz2-5" target="L3sTXf5K1S5_4LG_mOz2-47" edge="1">
          <mxGeometry relative="1" as="geometry">
            <mxPoint x="814" y="340" as="targetPoint" />
          </mxGeometry>
        </mxCell>
        <mxCell id="L3sTXf5K1S5_4LG_mOz2-55" style="edgeStyle=none;curved=1;rounded=0;orthogonalLoop=1;jettySize=auto;html=1;entryX=0.5;entryY=0;entryDx=0;entryDy=0;fontSize=12;startSize=8;endSize=8;endArrow=none;endFill=0;" parent="1" source="L3sTXf5K1S5_4LG_mOz2-56" target="L3sTXf5K1S5_4LG_mOz2-51" edge="1">
          <mxGeometry relative="1" as="geometry" />
        </mxCell>
        <mxCell id="L3sTXf5K1S5_4LG_mOz2-5" value="démarrer robot sans wd" style="rounded=0;whiteSpace=wrap;html=1;" parent="1" vertex="1">
          <mxGeometry x="590" y="510" width="120" height="60" as="geometry" />
        </mxCell>
        <mxCell id="L3sTXf5K1S5_4LG_mOz2-21" style="edgeStyle=none;curved=1;rounded=0;orthogonalLoop=1;jettySize=auto;html=1;exitX=0.5;exitY=1;exitDx=0;exitDy=0;entryX=0.5;entryY=0;entryDx=0;entryDy=0;fontSize=12;startSize=8;endSize=8;dashed=1;" parent="1" source="L3sTXf5K1S5_4LG_mOz2-6" target="L3sTXf5K1S5_4LG_mOz2-7" edge="1">
          <mxGeometry relative="1" as="geometry" />
        </mxCell>
        <mxCell id="L3sTXf5K1S5_4LG_mOz2-6" value="Metttre en place la communication avec le robot" style="rounded=0;whiteSpace=wrap;html=1;" parent="1" vertex="1">
          <mxGeometry x="880" y="90" width="120" height="60" as="geometry" />
        </mxCell>
        <mxCell id="L3sTXf5K1S5_4LG_mOz2-26" style="edgeStyle=none;curved=1;rounded=0;orthogonalLoop=1;jettySize=auto;html=1;fontSize=12;startSize=8;endSize=8;" parent="1" source="L3sTXf5K1S5_4LG_mOz2-7" edge="1">
          <mxGeometry relative="1" as="geometry">
            <mxPoint x="1130" y="850" as="targetPoint" />
            <Array as="points">
              <mxPoint x="1000" y="850" />
            </Array>
          </mxGeometry>
        </mxCell>
        <mxCell id="L3sTXf5K1S5_4LG_mOz2-7" value="Envoyer message au moniteur" style="rounded=0;whiteSpace=wrap;html=1;" parent="1" vertex="1">
          <mxGeometry x="720" y="820" width="120" height="60" as="geometry" />
        </mxCell>
        <mxCell id="L3sTXf5K1S5_4LG_mOz2-10" style="edgeStyle=none;curved=1;rounded=0;orthogonalLoop=1;jettySize=auto;html=1;entryX=0;entryY=0.5;entryDx=0;entryDy=0;fontSize=12;startSize=8;endSize=8;dashed=1;" parent="1" edge="1">
          <mxGeometry relative="1" as="geometry">
            <mxPoint x="100" y="294.0000000000001" as="sourcePoint" />
            <mxPoint x="140" y="294" as="targetPoint" />
          </mxGeometry>
        </mxCell>
        <mxCell id="L3sTXf5K1S5_4LG_mOz2-13" style="edgeStyle=none;curved=1;rounded=0;orthogonalLoop=1;jettySize=auto;html=1;entryX=0;entryY=0.5;entryDx=0;entryDy=0;fontSize=12;startSize=8;endSize=8;" parent="1" source="L3sTXf5K1S5_4LG_mOz2-37" target="L3sTXf5K1S5_4LG_mOz2-4" edge="1">
          <mxGeometry relative="1" as="geometry">
            <mxPoint x="384" y="260" as="sourcePoint" />
            <mxPoint x="394" y="170" as="targetPoint" />
            <Array as="points" />
          </mxGeometry>
        </mxCell>
        <mxCell id="L3sTXf5K1S5_4LG_mOz2-24" style="edgeStyle=none;curved=1;rounded=0;orthogonalLoop=1;jettySize=auto;html=1;fontSize=12;startSize=8;endSize=8;entryX=1;entryY=0.75;entryDx=0;entryDy=0;" parent="1" target="L3sTXf5K1S5_4LG_mOz2-5" edge="1">
          <mxGeometry relative="1" as="geometry">
            <mxPoint x="824" y="350" as="targetPoint" />
            <mxPoint x="890" y="530" as="sourcePoint" />
          </mxGeometry>
        </mxCell>
        <mxCell id="L3sTXf5K1S5_4LG_mOz2-28" value="outputstream" style="text;html=1;align=center;verticalAlign=middle;whiteSpace=wrap;rounded=0;fontSize=16;" parent="1" vertex="1">
          <mxGeometry x="950" y="860" width="60" height="30" as="geometry" />
        </mxCell>
        <mxCell id="L3sTXf5K1S5_4LG_mOz2-29" value="start" style="text;html=1;align=center;verticalAlign=middle;whiteSpace=wrap;rounded=0;fontSize=16;" parent="1" vertex="1">
          <mxGeometry x="49" y="280" width="60" height="30" as="geometry" />
        </mxCell>
        <mxCell id="L3sTXf5K1S5_4LG_mOz2-30" value="ouvrir socket" style="text;html=1;align=center;verticalAlign=middle;whiteSpace=wrap;rounded=0;fontSize=16;" parent="1" vertex="1">
          <mxGeometry x="-50" y="520" width="130" height="30" as="geometry" />
        </mxCell>
        <mxCell id="L3sTXf5K1S5_4LG_mOz2-33" value="serveur démarré" style="text;html=1;align=center;verticalAlign=middle;whiteSpace=wrap;rounded=0;fontSize=16;" parent="1" vertex="1">
          <mxGeometry x="49" y="360" width="160" height="30" as="geometry" />
        </mxCell>
        <mxCell id="L3sTXf5K1S5_4LG_mOz2-37" value="inputStream" style="text;html=1;align=center;verticalAlign=middle;whiteSpace=wrap;rounded=0;fontSize=16;" parent="1" vertex="1">
          <mxGeometry x="285" y="275" width="114" height="30" as="geometry" />
        </mxCell>
        <mxCell id="L3sTXf5K1S5_4LG_mOz2-38" style="edgeStyle=none;curved=1;rounded=0;orthogonalLoop=1;jettySize=auto;html=1;exitX=0.5;exitY=0;exitDx=0;exitDy=0;fontSize=12;startSize=8;endSize=8;" parent="1" source="L3sTXf5K1S5_4LG_mOz2-37" target="L3sTXf5K1S5_4LG_mOz2-37" edge="1">
          <mxGeometry relative="1" as="geometry" />
        </mxCell>
        <mxCell id="L3sTXf5K1S5_4LG_mOz2-40" value="" style="edgeStyle=none;curved=1;rounded=0;orthogonalLoop=1;jettySize=auto;html=1;exitX=0.5;exitY=1;exitDx=0;exitDy=0;entryX=0.25;entryY=0;entryDx=0;entryDy=0;fontSize=12;startSize=8;endSize=8;endArrow=none;endFill=0;" parent="1" source="L3sTXf5K1S5_4LG_mOz2-3" target="L3sTXf5K1S5_4LG_mOz2-41" edge="1">
          <mxGeometry relative="1" as="geometry">
            <mxPoint x="434" y="150" as="sourcePoint" />
            <mxPoint x="464" y="240" as="targetPoint" />
          </mxGeometry>
        </mxCell>
        <mxCell id="L3sTXf5K1S5_4LG_mOz2-41" value="mouvement" style="text;html=1;align=center;verticalAlign=middle;whiteSpace=wrap;rounded=0;fontSize=16;" parent="1" vertex="1">
          <mxGeometry x="454" y="90" width="100" height="30" as="geometry" />
        </mxCell>
        <mxCell id="L3sTXf5K1S5_4LG_mOz2-42" value="" style="edgeStyle=none;curved=1;rounded=0;orthogonalLoop=1;jettySize=auto;html=1;exitX=1;exitY=1;exitDx=0;exitDy=0;entryX=0.5;entryY=0;entryDx=0;entryDy=0;fontSize=12;startSize=8;endSize=8;endArrow=none;endFill=0;" parent="1" source="L3sTXf5K1S5_4LG_mOz2-3" target="L3sTXf5K1S5_4LG_mOz2-43" edge="1">
          <mxGeometry relative="1" as="geometry">
            <mxPoint x="494" y="150" as="sourcePoint" />
            <mxPoint x="584" y="360" as="targetPoint" />
            <Array as="points" />
          </mxGeometry>
        </mxCell>
        <mxCell id="L3sTXf5K1S5_4LG_mOz2-43" value="robot démarré" style="text;html=1;align=center;verticalAlign=middle;whiteSpace=wrap;rounded=0;fontSize=16;" parent="1" vertex="1">
          <mxGeometry x="560" y="86" width="116" height="30" as="geometry" />
        </mxCell>
        <mxCell id="L3sTXf5K1S5_4LG_mOz2-45" value="connexion établie" style="text;html=1;align=center;verticalAlign=middle;whiteSpace=wrap;rounded=0;fontSize=16;" parent="1" vertex="1">
          <mxGeometry x="240" y="420" width="60" height="30" as="geometry" />
        </mxCell>
        <mxCell id="L3sTXf5K1S5_4LG_mOz2-46" value="messageToMon" style="text;html=1;align=center;verticalAlign=middle;whiteSpace=wrap;rounded=0;fontSize=16;" parent="1" vertex="1">
          <mxGeometry x="827" y="650" width="130" height="30" as="geometry" />
        </mxCell>
        <mxCell id="L3sTXf5K1S5_4LG_mOz2-47" value="ordre" style="text;html=1;align=center;verticalAlign=middle;whiteSpace=wrap;rounded=0;fontSize=16;" parent="1" vertex="1">
          <mxGeometry x="900" y="470" width="60" height="30" as="geometry" />
        </mxCell>
        <mxCell id="L3sTXf5K1S5_4LG_mOz2-48" value="réponse" style="text;html=1;align=center;verticalAlign=middle;whiteSpace=wrap;rounded=0;fontSize=16;" parent="1" vertex="1">
          <mxGeometry x="760" y="550" width="60" height="30" as="geometry" />
        </mxCell>
        <mxCell id="L3sTXf5K1S5_4LG_mOz2-52" style="edgeStyle=none;curved=1;rounded=0;orthogonalLoop=1;jettySize=auto;html=1;entryX=0;entryY=0.75;entryDx=0;entryDy=0;fontSize=12;startSize=8;endSize=8;" parent="1" source="L3sTXf5K1S5_4LG_mOz2-51" target="L3sTXf5K1S5_4LG_mOz2-7" edge="1">
          <mxGeometry relative="1" as="geometry" />
        </mxCell>
        <mxCell id="L3sTXf5K1S5_4LG_mOz2-51" value="récupérer niveau batterie" style="rounded=0;whiteSpace=wrap;html=1;" parent="1" vertex="1">
          <mxGeometry x="294" y="950" width="120" height="60" as="geometry" />
        </mxCell>
        <mxCell id="L3sTXf5K1S5_4LG_mOz2-57" value="" style="edgeStyle=none;curved=1;rounded=0;orthogonalLoop=1;jettySize=auto;html=1;entryX=0.5;entryY=0;entryDx=0;entryDy=0;fontSize=12;startSize=8;endSize=8;endArrow=none;endFill=0;" parent="1" source="L3sTXf5K1S5_4LG_mOz2-5" target="L3sTXf5K1S5_4LG_mOz2-56" edge="1">
          <mxGeometry relative="1" as="geometry">
            <mxPoint x="539" y="430" as="sourcePoint" />
            <mxPoint x="473" y="560" as="targetPoint" />
          </mxGeometry>
        </mxCell>
        <mxCell id="L3sTXf5K1S5_4LG_mOz2-56" value="robot démarré" style="text;html=1;align=center;verticalAlign=middle;whiteSpace=wrap;rounded=0;fontSize=16;" parent="1" vertex="1">
          <mxGeometry x="510" y="610" width="116" height="30" as="geometry" />
        </mxCell>
        <mxCell id="L3sTXf5K1S5_4LG_mOz2-58" value="niveau de batterie" style="text;html=1;align=center;verticalAlign=middle;whiteSpace=wrap;rounded=0;fontSize=16;" parent="1" vertex="1">
          <mxGeometry x="577" y="910" width="116" height="30" as="geometry" />
        </mxCell>
        <mxCell id="L3sTXf5K1S5_4LG_mOz2-59" value="&lt;font color=&quot;#000000&quot;&gt;Fonction : Récuperer niveau de batterie&lt;/font&gt;&lt;div&gt;&lt;font color=&quot;#000000&quot;&gt;&lt;br&gt;&lt;/font&gt;&lt;/div&gt;&lt;div&gt;&lt;font color=&quot;#000000&quot;&gt;attendre connexion avec moniteur&lt;/font&gt;&lt;/div&gt;&lt;div&gt;&lt;font color=&quot;#000000&quot;&gt;attendre robot démarré&lt;/font&gt;&lt;/div&gt;&lt;div&gt;&lt;font color=&quot;#000000&quot;&gt;tant que périodiquement (500ms)&lt;/font&gt;&lt;/div&gt;&lt;div&gt;&lt;font color=&quot;#000000&quot;&gt;verif&amp;nbsp; connexion moniteur&lt;/font&gt;&lt;/div&gt;&lt;div&gt;&lt;font color=&quot;#000000&quot;&gt;verif robot tjrs allumé&lt;/font&gt;&lt;/div&gt;&lt;div&gt;&lt;font color=&quot;#000000&quot;&gt;recup niveau de batterie&lt;/font&gt;&lt;/div&gt;&lt;div&gt;&lt;font color=&quot;#000000&quot;&gt;envoyer niveau de battrie au moniteur&lt;/font&gt;&lt;/div&gt;&lt;div&gt;&lt;font color=&quot;#000000&quot;&gt;fin tant que&lt;/font&gt;&lt;/div&gt;" style="shape=note;whiteSpace=wrap;html=1;backgroundOutline=1;darkOpacity=0.05;size=16;fillColor=#ffe6cc;strokeColor=#d79b00;" parent="1" vertex="1">
          <mxGeometry x="54" y="680" width="250" height="230" as="geometry" />
        </mxCell>
        <mxCell id="L3sTXf5K1S5_4LG_mOz2-69" style="edgeStyle=none;curved=1;rounded=0;orthogonalLoop=1;jettySize=auto;html=1;exitX=0.5;exitY=0;exitDx=0;exitDy=0;fontSize=12;startSize=8;endSize=8;endArrow=none;endFill=0;startArrow=classic;startFill=1;entryX=0.25;entryY=1;entryDx=0;entryDy=0;dashed=1;" parent="1" source="L3sTXf5K1S5_4LG_mOz2-68" target="L3sTXf5K1S5_4LG_mOz2-4" edge="1">
          <mxGeometry relative="1" as="geometry">
            <mxPoint x="-329.9999999999998" y="755" as="targetPoint" />
            <Array as="points">
              <mxPoint x="40" y="650" />
              <mxPoint x="330" y="670" />
            </Array>
          </mxGeometry>
        </mxCell>
        <mxCell id="L3sTXf5K1S5_4LG_mOz2-71" style="edgeStyle=none;curved=1;rounded=0;orthogonalLoop=1;jettySize=auto;html=1;exitX=0.5;exitY=1;exitDx=0;exitDy=0;fontSize=12;startSize=8;endSize=8;dashed=1;" parent="1" source="L3sTXf5K1S5_4LG_mOz2-68" target="L3sTXf5K1S5_4LG_mOz2-72" edge="1">
          <mxGeometry relative="1" as="geometry">
            <mxPoint x="-126.57142857142844" y="900" as="targetPoint" />
          </mxGeometry>
        </mxCell>
        <mxCell id="L3sTXf5K1S5_4LG_mOz2-73" style="edgeStyle=none;curved=1;rounded=0;orthogonalLoop=1;jettySize=auto;html=1;exitX=1;exitY=0.25;exitDx=0;exitDy=0;fontSize=12;startSize=8;endSize=8;entryX=0;entryY=0.5;entryDx=0;entryDy=0;dashed=1;" parent="1" source="L3sTXf5K1S5_4LG_mOz2-68" target="L3sTXf5K1S5_4LG_mOz2-7" edge="1">
          <mxGeometry relative="1" as="geometry">
            <mxPoint x="-310" y="785" as="targetPoint" />
          </mxGeometry>
        </mxCell>
        <mxCell id="L3sTXf5K1S5_4LG_mOz2-68" value="Démarrer caméra" style="rounded=0;whiteSpace=wrap;html=1;" parent="1" vertex="1">
          <mxGeometry x="-186" y="740" width="120" height="60" as="geometry" />
        </mxCell>
        <mxCell id="L3sTXf5K1S5_4LG_mOz2-70" value="ouverture caméra" style="text;html=1;align=center;verticalAlign=middle;whiteSpace=wrap;rounded=0;fontSize=16;" parent="1" vertex="1">
          <mxGeometry x="414" y="444" width="60" height="30" as="geometry" />
        </mxCell>
        <mxCell id="L3sTXf5K1S5_4LG_mOz2-72" value="ordre démarrage caméra" style="text;html=1;align=center;verticalAlign=middle;whiteSpace=wrap;rounded=0;fontSize=16;" parent="1" vertex="1">
          <mxGeometry x="-156" y="900" width="60" height="60" as="geometry" />
        </mxCell>
        <mxCell id="L3sTXf5K1S5_4LG_mOz2-74" value="échec démarrage caméra" style="text;html=1;align=center;verticalAlign=middle;whiteSpace=wrap;rounded=0;fontSize=16;" parent="1" vertex="1">
          <mxGeometry x="535" y="780" width="60" height="30" as="geometry" />
        </mxCell>
        <mxCell id="L3sTXf5K1S5_4LG_mOz2-75" value="&lt;font color=&quot;#000000&quot;&gt;Fonction : Démarrer caméra&lt;/font&gt;&lt;div&gt;&lt;font color=&quot;#000000&quot;&gt;&lt;br&gt;&lt;/font&gt;&lt;/div&gt;&lt;div&gt;&lt;font color=&quot;#000000&quot;&gt;attendre demande du moniteur&lt;/font&gt;&lt;/div&gt;&lt;div&gt;&lt;font color=&quot;#000000&quot;&gt;Demande Ordre à la caméra pour l&#39;allumer&lt;/font&gt;&lt;/div&gt;&lt;div&gt;&lt;font color=&quot;#000000&quot;&gt;Si la caméra ne s&#39;est pas allumé&lt;/font&gt;&lt;/div&gt;&lt;div&gt;&lt;font color=&quot;#000000&quot;&gt;Envoyer au moniteur &quot;caméra pas allumé&quot;&lt;/font&gt;&lt;/div&gt;&lt;div&gt;&lt;font color=&quot;#000000&quot;&gt;Fin Si&lt;/font&gt;&lt;/div&gt;" style="shape=note;whiteSpace=wrap;html=1;backgroundOutline=1;darkOpacity=0.05;size=16;fillColor=#ffe6cc;strokeColor=#d79b00;" parent="1" vertex="1">
          <mxGeometry x="-436" y="830" width="250" height="230" as="geometry" />
        </mxCell>
        <mxCell id="L3sTXf5K1S5_4LG_mOz2-77" value="caméra démarrée" style="text;html=1;align=center;verticalAlign=middle;whiteSpace=wrap;rounded=0;fontSize=16;" parent="1" vertex="1">
          <mxGeometry x="-30" y="915" width="156" height="30" as="geometry" />
        </mxCell>
        <mxCell id="L3sTXf5K1S5_4LG_mOz2-79" style="edgeStyle=none;curved=1;rounded=0;orthogonalLoop=1;jettySize=auto;html=1;entryX=0.5;entryY=1;entryDx=0;entryDy=0;fontSize=12;startSize=8;endSize=8;" parent="1" source="L3sTXf5K1S5_4LG_mOz2-78" target="L3sTXf5K1S5_4LG_mOz2-7" edge="1">
          <mxGeometry relative="1" as="geometry">
            <Array as="points">
              <mxPoint x="10" y="1410" />
              <mxPoint x="310" y="1540" />
              <mxPoint x="800" y="1280" />
            </Array>
          </mxGeometry>
        </mxCell>
        <mxCell id="L3sTXf5K1S5_4LG_mOz2-78" value="Envois image" style="rounded=0;whiteSpace=wrap;html=1;" parent="1" vertex="1">
          <mxGeometry x="-120" y="1050" width="120" height="60" as="geometry" />
        </mxCell>
        <mxCell id="L3sTXf5K1S5_4LG_mOz2-80" style="edgeStyle=none;curved=1;rounded=0;orthogonalLoop=1;jettySize=auto;html=1;entryX=0.5;entryY=0;entryDx=0;entryDy=0;fontSize=12;startSize=8;endSize=8;dashed=1;exitX=1;exitY=0.5;exitDx=0;exitDy=0;" parent="1" source="L3sTXf5K1S5_4LG_mOz2-68" target="L3sTXf5K1S5_4LG_mOz2-78" edge="1">
          <mxGeometry relative="1" as="geometry">
            <mxPoint x="30" y="640" as="sourcePoint" />
            <mxPoint x="74" y="1110" as="targetPoint" />
            <Array as="points">
              <mxPoint y="920" />
            </Array>
          </mxGeometry>
        </mxCell>
        <mxCell id="L3sTXf5K1S5_4LG_mOz2-83" value="image&lt;div&gt;acquise&lt;/div&gt;" style="text;html=1;align=center;verticalAlign=middle;whiteSpace=wrap;rounded=0;fontSize=16;" parent="1" vertex="1">
          <mxGeometry x="6" y="1248" width="60" height="30" as="geometry" />
        </mxCell>
        <mxCell id="L3sTXf5K1S5_4LG_mOz2-84" value="&lt;font color=&quot;#000000&quot;&gt;Fonction : Envois de l&#39;image&lt;/font&gt;&lt;div&gt;&lt;font color=&quot;#000000&quot;&gt;&lt;br&gt;&lt;/font&gt;&lt;/div&gt;&lt;div&gt;&lt;font color=&quot;#000000&quot;&gt;attendre le démarrage de la caméra&lt;/font&gt;&lt;/div&gt;&lt;div&gt;&lt;font color=&quot;#000000&quot;&gt;Envois d&#39;une image périodiquement&lt;/font&gt;&lt;/div&gt;&lt;div&gt;&lt;font color=&quot;#000000&quot;&gt;au moniteur (100ms)&lt;/font&gt;&lt;/div&gt;" style="shape=note;whiteSpace=wrap;html=1;backgroundOutline=1;darkOpacity=0.05;size=16;fillColor=#ffe6cc;strokeColor=#d79b00;" parent="1" vertex="1">
          <mxGeometry x="-316" y="1150" width="250" height="230" as="geometry" />
        </mxCell>
        <mxCell id="yGGIavNJI8EcNuXHw7Ne-6" style="edgeStyle=orthogonalEdgeStyle;rounded=0;orthogonalLoop=1;jettySize=auto;html=1;exitX=0.25;exitY=1;exitDx=0;exitDy=0;entryX=1;entryY=0.25;entryDx=0;entryDy=0;" parent="1" source="yGGIavNJI8EcNuXHw7Ne-1" target="L3sTXf5K1S5_4LG_mOz2-7" edge="1">
          <mxGeometry relative="1" as="geometry" />
        </mxCell>
        <mxCell id="yGGIavNJI8EcNuXHw7Ne-1" value="Arret Caméra" style="rounded=0;whiteSpace=wrap;html=1;" parent="1" vertex="1">
          <mxGeometry x="1010" y="330" width="120" height="60" as="geometry" />
        </mxCell>
        <mxCell id="yGGIavNJI8EcNuXHw7Ne-3" value="fermeture caméra" style="text;html=1;align=center;verticalAlign=middle;whiteSpace=wrap;rounded=0;" parent="1" vertex="1">
          <mxGeometry x="676" y="255" width="60" height="30" as="geometry" />
        </mxCell>
        <mxCell id="yGGIavNJI8EcNuXHw7Ne-4" style="edgeStyle=orthogonalEdgeStyle;rounded=0;orthogonalLoop=1;jettySize=auto;html=1;exitX=0.75;exitY=1;exitDx=0;exitDy=0;entryX=1;entryY=0.5;entryDx=0;entryDy=0;dashed=1;" parent="1" source="yGGIavNJI8EcNuXHw7Ne-1" target="L3sTXf5K1S5_4LG_mOz2-78" edge="1">
          <mxGeometry relative="1" as="geometry" />
        </mxCell>
        <mxCell id="yGGIavNJI8EcNuXHw7Ne-5" value="arrêt de l&#39;envoi d&#39;image" style="text;html=1;align=center;verticalAlign=middle;whiteSpace=wrap;rounded=0;" parent="1" vertex="1">
          <mxGeometry x="1105" y="500" width="60" height="30" as="geometry" />
        </mxCell>
        <mxCell id="yGGIavNJI8EcNuXHw7Ne-7" value="Ack" style="text;html=1;align=center;verticalAlign=middle;whiteSpace=wrap;rounded=0;" parent="1" vertex="1">
          <mxGeometry x="990" y="570" width="60" height="30" as="geometry" />
        </mxCell>
        <mxCell id="yGGIavNJI8EcNuXHw7Ne-8" value="&lt;font color=&quot;#000000&quot;&gt;Fonction : Arret Caméra&lt;/font&gt;&lt;div&gt;&lt;font color=&quot;#000000&quot;&gt;&lt;br&gt;&lt;/font&gt;&lt;/div&gt;&lt;div&gt;&lt;font color=&quot;#000000&quot;&gt;attendre Stop du moniteur&lt;/font&gt;&lt;/div&gt;&lt;div&gt;&lt;span style=&quot;color: rgb(0, 0, 0); background-color: initial;&quot;&gt;Si demande d&#39;arret&lt;/span&gt;&lt;/div&gt;&lt;div&gt;&lt;font color=&quot;#000000&quot;&gt;Arret d&#39;envoi de messages&lt;/font&gt;&lt;/div&gt;&lt;div&gt;&lt;font color=&quot;#000000&quot;&gt;Envoi aquitement&lt;/font&gt;&lt;/div&gt;&lt;div&gt;&lt;font color=&quot;#000000&quot;&gt;fin si&lt;/font&gt;&lt;/div&gt;" style="shape=note;whiteSpace=wrap;html=1;backgroundOutline=1;darkOpacity=0.05;size=16;fillColor=#ffe6cc;strokeColor=#d79b00;" parent="1" vertex="1">
          <mxGeometry x="1150" y="230" width="250" height="230" as="geometry" />
        </mxCell>
        <mxCell id="yGGIavNJI8EcNuXHw7Ne-10" style="edgeStyle=orthogonalEdgeStyle;rounded=0;orthogonalLoop=1;jettySize=auto;html=1;exitX=1;exitY=0.5;exitDx=0;exitDy=0;entryX=0;entryY=0.5;entryDx=0;entryDy=0;dashed=1;" parent="1" source="yGGIavNJI8EcNuXHw7Ne-9" target="L3sTXf5K1S5_4LG_mOz2-78" edge="1">
          <mxGeometry relative="1" as="geometry">
            <Array as="points">
              <mxPoint x="-500" y="1109" />
              <mxPoint x="-310" y="1109" />
              <mxPoint x="-310" y="1080" />
            </Array>
          </mxGeometry>
        </mxCell>
        <mxCell id="yGGIavNJI8EcNuXHw7Ne-9" value="Recherche Arènes" style="rounded=0;whiteSpace=wrap;html=1;" parent="1" vertex="1">
          <mxGeometry x="-620" y="1100" width="120" height="60" as="geometry" />
        </mxCell>
        <mxCell id="yGGIavNJI8EcNuXHw7Ne-11" value="activer ou désactiver l&#39;envois d&#39;images périodique" style="text;html=1;align=center;verticalAlign=middle;whiteSpace=wrap;rounded=0;" parent="1" vertex="1">
          <mxGeometry x="-478" y="1110" width="172" height="30" as="geometry" />
        </mxCell>
        <mxCell id="yGGIavNJI8EcNuXHw7Ne-13" value="activer ou désactiver la recherche" style="text;html=1;align=center;verticalAlign=middle;whiteSpace=wrap;rounded=0;" parent="1" vertex="1">
          <mxGeometry x="266" y="137" width="154" height="30" as="geometry" />
        </mxCell>
        <mxCell id="yGGIavNJI8EcNuXHw7Ne-14" style="edgeStyle=orthogonalEdgeStyle;rounded=0;orthogonalLoop=1;jettySize=auto;html=1;entryX=0.25;entryY=1;entryDx=0;entryDy=0;" parent="1" source="yGGIavNJI8EcNuXHw7Ne-9" target="L3sTXf5K1S5_4LG_mOz2-7" edge="1">
          <mxGeometry relative="1" as="geometry">
            <Array as="points">
              <mxPoint x="-560" y="1550" />
              <mxPoint x="745" y="1550" />
              <mxPoint x="745" y="880" />
            </Array>
          </mxGeometry>
        </mxCell>
        <mxCell id="yGGIavNJI8EcNuXHw7Ne-15" value="message arène trouvée ou non trouvée" style="text;html=1;align=center;verticalAlign=middle;whiteSpace=wrap;rounded=0;" parent="1" vertex="1">
          <mxGeometry x="-556" y="1183" width="120" height="30" as="geometry" />
        </mxCell>
        <mxCell id="yGGIavNJI8EcNuXHw7Ne-17" value="&lt;font color=&quot;#000000&quot;&gt;Fonction : Recherche Arènes&lt;/font&gt;&lt;div&gt;&lt;font color=&quot;#000000&quot;&gt;&lt;br&gt;&lt;/font&gt;&lt;/div&gt;&lt;div&gt;&lt;font color=&quot;#000000&quot;&gt;Attendre demande de recherche&lt;/font&gt;&lt;/div&gt;&lt;div&gt;&lt;font color=&quot;#000000&quot;&gt;Arret de l&#39;envoi d&#39;image périodique&lt;/font&gt;&lt;/div&gt;&lt;div&gt;&lt;font color=&quot;#000000&quot;&gt;SI Arene trouvé&lt;/font&gt;&lt;/div&gt;&lt;div&gt;&lt;font color=&quot;#000000&quot;&gt;Envoi l&#39;acquisition de l&#39;arène au moniteur&lt;/font&gt;&lt;/div&gt;&lt;div&gt;&lt;font color=&quot;#000000&quot;&gt;SI Utilisateur Valide&lt;/font&gt;&lt;/div&gt;&lt;div&gt;Sauvegarde l&#39;image et active l&#39;envoi d&#39;image périodique&lt;/div&gt;&lt;div&gt;&lt;font color=&quot;#000000&quot;&gt;Sinon&amp;nbsp;&lt;/font&gt;&lt;/div&gt;&lt;div&gt;Annule la recherche d&#39;arène et active l&#39;envoi d&#39;image périodique&lt;/div&gt;&lt;div&gt;&lt;font color=&quot;#000000&quot;&gt;Fin si&lt;/font&gt;&lt;/div&gt;&lt;div&gt;&lt;font color=&quot;#000000&quot;&gt;Sinon&amp;nbsp;&lt;/font&gt;&lt;/div&gt;&lt;div&gt;Envoi d&#39;un message d&#39;échec de la détection d&#39;arène au moniteur&lt;/div&gt;&lt;div&gt;&lt;font color=&quot;#000000&quot;&gt;Fin si&lt;/font&gt;&lt;/div&gt;" style="shape=note;whiteSpace=wrap;html=1;backgroundOutline=1;darkOpacity=0.05;size=16;fillColor=#ffe6cc;strokeColor=#d79b00;" parent="1" vertex="1">
          <mxGeometry x="-870" y="1169" width="250" height="258" as="geometry" />
        </mxCell>
        <mxCell id="yGGIavNJI8EcNuXHw7Ne-18" value="" style="edgeStyle=none;curved=1;rounded=0;orthogonalLoop=1;jettySize=auto;html=1;exitX=0.5;exitY=1;exitDx=0;exitDy=0;entryX=0.25;entryY=0;entryDx=0;entryDy=0;fontSize=12;startSize=8;endSize=8;dashed=1;endArrow=none;endFill=0;" parent="1" source="L3sTXf5K1S5_4LG_mOz2-4" target="L3sTXf5K1S5_4LG_mOz2-44" edge="1">
          <mxGeometry relative="1" as="geometry">
            <mxPoint x="494" y="300" as="sourcePoint" />
            <mxPoint x="620" y="510" as="targetPoint" />
          </mxGeometry>
        </mxCell>
        <mxCell id="L3sTXf5K1S5_4LG_mOz2-44" value="démarré robot sans wd" style="text;html=1;align=center;verticalAlign=middle;whiteSpace=wrap;rounded=0;fontSize=16;" parent="1" vertex="1">
          <mxGeometry x="464" y="360" width="174" height="30" as="geometry" />
        </mxCell>
        <mxCell id="yGGIavNJI8EcNuXHw7Ne-20" value="validation de l&#39;arène trouvée ou annulation de la recherche" style="text;html=1;align=center;verticalAlign=middle;whiteSpace=wrap;rounded=0;" parent="1" vertex="1">
          <mxGeometry x="244" y="215" width="177" height="30" as="geometry" />
        </mxCell>
        <mxCell id="yGGIavNJI8EcNuXHw7Ne-23" style="edgeStyle=orthogonalEdgeStyle;rounded=0;orthogonalLoop=1;jettySize=auto;html=1;exitX=0;exitY=0.5;exitDx=0;exitDy=0;entryX=0.75;entryY=1;entryDx=0;entryDy=0;" parent="1" source="yGGIavNJI8EcNuXHw7Ne-21" target="L3sTXf5K1S5_4LG_mOz2-78" edge="1">
          <mxGeometry relative="1" as="geometry" />
        </mxCell>
        <mxCell id="yGGIavNJI8EcNuXHw7Ne-27" style="edgeStyle=orthogonalEdgeStyle;rounded=0;orthogonalLoop=1;jettySize=auto;html=1;entryX=0.75;entryY=1;entryDx=0;entryDy=0;" parent="1" source="yGGIavNJI8EcNuXHw7Ne-21" target="L3sTXf5K1S5_4LG_mOz2-7" edge="1">
          <mxGeometry relative="1" as="geometry" />
        </mxCell>
        <mxCell id="yGGIavNJI8EcNuXHw7Ne-21" value="Calcul Position" style="rounded=0;whiteSpace=wrap;html=1;" parent="1" vertex="1">
          <mxGeometry x="160" y="1620" width="120" height="60" as="geometry" />
        </mxCell>
        <mxCell id="yGGIavNJI8EcNuXHw7Ne-24" value="Ajouter les coordonnées sur l&#39;image ou non" style="text;html=1;align=center;verticalAlign=middle;whiteSpace=wrap;rounded=0;" parent="1" vertex="1">
          <mxGeometry x="-14" y="1616" width="149" height="30" as="geometry" />
        </mxCell>
        <mxCell id="yGGIavNJI8EcNuXHw7Ne-26" value="&lt;font style=&quot;font-size: 14px;&quot;&gt;calculer position du robot ou non&lt;/font&gt;" style="text;html=1;align=center;verticalAlign=middle;whiteSpace=wrap;rounded=0;" parent="1" vertex="1">
          <mxGeometry x="500" y="175" width="108" height="30" as="geometry" />
        </mxCell>
        <mxCell id="yGGIavNJI8EcNuXHw7Ne-28" value="Position actuelle ou (-1,-1) si erreur" style="text;html=1;align=center;verticalAlign=middle;whiteSpace=wrap;rounded=0;" parent="1" vertex="1">
          <mxGeometry x="441" y="1616" width="132" height="30" as="geometry" />
        </mxCell>
        <mxCell id="yGGIavNJI8EcNuXHw7Ne-29" value="&lt;font color=&quot;#000000&quot;&gt;Fonction : Calcul de la position&lt;/font&gt;&lt;div&gt;&lt;br&gt;&lt;/div&gt;&lt;div&gt;&lt;font color=&quot;#000000&quot;&gt;Attendre demande de l&#39;utilisateur&lt;/font&gt;&lt;/div&gt;&lt;div&gt;&lt;font color=&quot;#000000&quot;&gt;Tant que périodiquement (100ms)&lt;/font&gt;&lt;/div&gt;&lt;div&gt;&lt;font color=&quot;#000000&quot;&gt;SI utilsateur ne demande pas l&#39;arret&lt;/font&gt;&lt;/div&gt;&lt;div&gt;&lt;font color=&quot;#000000&quot;&gt;Calcul de la position&lt;/font&gt;&lt;/div&gt;&lt;div&gt;&lt;font color=&quot;#000000&quot;&gt;Si calcul réussi&lt;/font&gt;&lt;/div&gt;&lt;div&gt;&lt;font color=&quot;#000000&quot;&gt;Affiche coordonnées sur caméra&lt;/font&gt;&lt;/div&gt;&lt;div&gt;&lt;font color=&quot;#000000&quot;&gt;Envoi coordonnées au moniteur&lt;/font&gt;&lt;/div&gt;&lt;div&gt;&lt;font color=&quot;#000000&quot;&gt;Sinon&lt;/font&gt;&lt;/div&gt;&lt;div&gt;&lt;font color=&quot;#000000&quot;&gt;Envoi (-1;-1) au moniteur&lt;/font&gt;&lt;/div&gt;&lt;div&gt;&lt;font color=&quot;#000000&quot;&gt;Fin si&lt;/font&gt;&lt;/div&gt;&lt;div&gt;&lt;font color=&quot;#000000&quot;&gt;Sinon&lt;/font&gt;&lt;/div&gt;&lt;div&gt;&lt;font color=&quot;#000000&quot;&gt;Arreter affichage sur camera&lt;/font&gt;&lt;/div&gt;&lt;div&gt;&lt;font color=&quot;#000000&quot;&gt;arreter envoi de coordonnées&lt;/font&gt;&lt;/div&gt;&lt;div&gt;&lt;font color=&quot;#000000&quot;&gt;Fin si&lt;/font&gt;&lt;/div&gt;&lt;div&gt;&lt;font color=&quot;#000000&quot;&gt;Fin tant que&lt;/font&gt;&lt;/div&gt;" style="shape=note;whiteSpace=wrap;html=1;backgroundOutline=1;darkOpacity=0.05;size=16;fillColor=#ffe6cc;strokeColor=#d79b00;" parent="1" vertex="1">
          <mxGeometry x="304" y="1675" width="250" height="295" as="geometry" />
        </mxCell>
        <UserObject label="" id="pWdWMJ31CZePypWNVzOE-5">
          <mxCell style="edgeStyle=none;curved=1;rounded=0;orthogonalLoop=1;jettySize=auto;html=1;exitX=0.5;exitY=1;exitDx=0;exitDy=0;fontSize=12;startSize=8;endSize=8;dashed=1;" edge="1" parent="1">
            <mxGeometry relative="1" as="geometry">
              <mxPoint x="-259" y="-216" as="sourcePoint" />
              <mxPoint x="-87" y="-216" as="targetPoint" />
            </mxGeometry>
          </mxCell>
        </UserObject>
        <mxCell id="pWdWMJ31CZePypWNVzOE-6" style="edgeStyle=none;curved=1;rounded=0;orthogonalLoop=1;jettySize=auto;html=1;fontSize=12;startSize=8;endSize=8;" edge="1" parent="1">
          <mxGeometry relative="1" as="geometry">
            <mxPoint x="-85" y="-163" as="targetPoint" />
            <mxPoint x="-255" y="-163" as="sourcePoint" />
          </mxGeometry>
        </mxCell>
        <mxCell id="pWdWMJ31CZePypWNVzOE-7" value="ORDRE" style="text;html=1;align=center;verticalAlign=middle;whiteSpace=wrap;rounded=0;" vertex="1" parent="1">
          <mxGeometry x="-126" y="-230" width="154" height="30" as="geometry" />
        </mxCell>
        <mxCell id="pWdWMJ31CZePypWNVzOE-8" value="ECHANGE DE DONNEES" style="text;html=1;align=center;verticalAlign=middle;whiteSpace=wrap;rounded=0;" vertex="1" parent="1">
          <mxGeometry x="-79" y="-178" width="154" height="30" as="geometry" />
        </mxCell>
        <mxCell id="pWdWMJ31CZePypWNVzOE-14" value="" style="edgeStyle=none;curved=1;rounded=0;orthogonalLoop=1;jettySize=auto;html=1;exitX=1;exitY=0.5;exitDx=0;exitDy=0;fontSize=12;startSize=8;endSize=8;endArrow=none;endFill=0;" edge="1" parent="1" source="L3sTXf5K1S5_4LG_mOz2-3" target="L3sTXf5K1S5_4LG_mOz2-49">
          <mxGeometry relative="1" as="geometry">
            <mxPoint x="810" y="510" as="targetPoint" />
            <Array as="points" />
            <mxPoint x="590" y="-40" as="sourcePoint" />
          </mxGeometry>
        </mxCell>
        <mxCell id="L3sTXf5K1S5_4LG_mOz2-49" value="ouvrir comRobot" style="text;html=1;align=center;verticalAlign=middle;whiteSpace=wrap;rounded=0;fontSize=16;" parent="1" vertex="1">
          <mxGeometry x="774" y="94" width="80" height="30" as="geometry" />
        </mxCell>
      </root>
    </mxGraphModel>
  </diagram>
</mxfile>
